HIERARCHY
ROOT Hips
{
	OFFSET -14.64140 90.27770 -84.91600
	CHANNELS 6 Xposition Yposition Zposition Zrotation Xrotation Yrotation
	JOINT Spine
	{
		OFFSET 0.00000 13.20850 -1.60436
		CHANNELS 3 Zrotation Xrotation Yrotation
		JOINT Spine1
		{
			OFFSET 0.00000 8.61716 0.00000
			CHANNELS 3 Zrotation Xrotation Yrotation
			JOINT Spine2
			{
				OFFSET 0.00000 8.61717 0.00000
				CHANNELS 3 Zrotation Xrotation Yrotation
				JOINT Spine3
				{
					OFFSET 0.00000 8.61717 0.00000
					CHANNELS 3 Zrotation Xrotation Yrotation
					JOINT Neck
					{
						OFFSET 0.00000 11.07920 1.10792
						CHANNELS 3 Zrotation Xrotation Yrotation
						JOINT Neck1
						{
							OFFSET 0.00000 7.08032 0.00000
							CHANNELS 3 Zrotation Xrotation Yrotation
							JOINT Head
							{
								OFFSET 0.00000 7.08031 0.00000
								CHANNELS 3 Zrotation Xrotation Yrotation
								End site
								{
									OFFSET 0.00000 0.00000 0.00000
								}
							}
						}
					}
					JOINT RightShoulder
					{
						OFFSET -0.01000 7.91373 5.19711
						CHANNELS 3 Zrotation Xrotation Yrotation
						JOINT RightArm
						{
							OFFSET -18.41580 0.00000 0.00000
							CHANNELS 3 Zrotation Xrotation Yrotation
							JOINT RightForeArm
							{
								OFFSET -29.11090 0.00000 0.00000
								CHANNELS 3 Zrotation Xrotation Yrotation
								JOINT RightHand
								{
									OFFSET -24.65040 0.00000 0.00000
									CHANNELS 3 Zrotation Xrotation Yrotation
									JOINT RightHandThumb1
									{
										OFFSET -5.35114 -0.85590 3.97906
										CHANNELS 3 Zrotation Xrotation Yrotation
										JOINT RightHandThumb2
										{
											OFFSET -4.52789 0.00000 0.00000
											CHANNELS 3 Zrotation Xrotation Yrotation
											JOINT RightHandThumb3
											{
												OFFSET -2.46976 0.00000 0.00000
												CHANNELS 3 Zrotation Xrotation Yrotation
												End site
												{
													OFFSET 0.00000 0.00000 0.00000
												}
											}
										}
									}
									JOINT RightHandIndex1
									{
										OFFSET -14.26970 0.00000 2.88139
										CHANNELS 3 Zrotation Xrotation Yrotation
										JOINT RightHandIndex2
										{
											OFFSET -5.48836 0.00000 0.00000
											CHANNELS 3 Zrotation Xrotation Yrotation
											JOINT RightHandIndex3
											{
												OFFSET -3.01859 0.00000 0.00000
												CHANNELS 3 Zrotation Xrotation Yrotation
												End site
												{
													OFFSET 0.00000 0.00000 0.00000
												}
											}
										}
									}
									JOINT RightHandMiddle1
									{
										OFFSET -14.26970 0.00000 -0.09147
										CHANNELS 3 Zrotation Xrotation Yrotation
										JOINT RightHandMiddle2
										{
											OFFSET -6.17441 0.00000 0.00000
											CHANNELS 3 Zrotation Xrotation Yrotation
											JOINT RightHandMiddle3
											{
												OFFSET -3.56743 0.00000 0.00000
												CHANNELS 3 Zrotation Xrotation Yrotation
												End site
												{
													OFFSET 0.00000 0.00000 0.00000
												}
											}
										}
									}
									JOINT RightHandRing1
									{
										OFFSET -12.69180 0.00000 -3.06433
										CHANNELS 3 Zrotation Xrotation Yrotation
										JOINT RightHandRing2
										{
											OFFSET -5.62556 0.00000 0.00000
											CHANNELS 3 Zrotation Xrotation Yrotation
											JOINT RightHandRing3
											{
												OFFSET -3.56744 0.00000 0.00000
												CHANNELS 3 Zrotation Xrotation Yrotation
												End site
												{
													OFFSET 0.00000 0.00000 0.00000
												}
											}
										}
									}
									JOINT RightHandPinky1
									{
										OFFSET -11.11390 0.00000 -6.03719
										CHANNELS 3 Zrotation Xrotation Yrotation
										JOINT RightHandPinky2
										{
											OFFSET -4.52789 0.00000 0.00000
											CHANNELS 3 Zrotation Xrotation Yrotation
											JOINT RightHandPinky3
											{
												OFFSET -2.46976 0.00000 0.00000
												CHANNELS 3 Zrotation Xrotation Yrotation
												End site
												{
													OFFSET 0.00000 0.00000 0.00000
												}
											}
										}
									}
								}
							}
						}
					}
					JOINT LeftShoulder
					{
						OFFSET 0.01000 7.91373 5.19711
						CHANNELS 3 Zrotation Xrotation Yrotation
						JOINT LeftArm
						{
							OFFSET 18.41580 0.00000 0.00000
							CHANNELS 3 Zrotation Xrotation Yrotation
							JOINT LeftForeArm
							{
								OFFSET 29.11090 0.00000 0.00000
								CHANNELS 3 Zrotation Xrotation Yrotation
								JOINT LeftHand
								{
									OFFSET 24.65040 0.00000 0.00000
									CHANNELS 3 Zrotation Xrotation Yrotation
									JOINT LeftHandThumb1
									{
										OFFSET 5.35114 -0.85590 3.97906
										CHANNELS 3 Zrotation Xrotation Yrotation
										JOINT LeftHandThumb2
										{
											OFFSET 4.52789 0.00000 0.00000
											CHANNELS 3 Zrotation Xrotation Yrotation
											JOINT LeftHandThumb3
											{
												OFFSET 2.46977 0.00000 0.00000
												CHANNELS 3 Zrotation Xrotation Yrotation
												End site
												{
													OFFSET 0.00000 0.00000 0.00000
												}
											}
										}
									}
									JOINT LeftHandIndex1
									{
										OFFSET 14.26970 0.00000 2.88139
										CHANNELS 3 Zrotation Xrotation Yrotation
										JOINT LeftHandIndex2
										{
											OFFSET 5.48836 0.00000 0.00000
											CHANNELS 3 Zrotation Xrotation Yrotation
											JOINT LeftHandIndex3
											{
												OFFSET 3.01859 0.00000 0.00000
												CHANNELS 3 Zrotation Xrotation Yrotation
												End site
												{
													OFFSET 0.00000 0.00000 0.00000
												}
											}
										}
									}
									JOINT LeftHandMiddle1
									{
										OFFSET 14.26970 0.00000 -0.09147
										CHANNELS 3 Zrotation Xrotation Yrotation
										JOINT LeftHandMiddle2
										{
											OFFSET 6.17440 0.00000 0.00000
											CHANNELS 3 Zrotation Xrotation Yrotation
											JOINT LeftHandMiddle3
											{
												OFFSET 3.56744 0.00000 0.00000
												CHANNELS 3 Zrotation Xrotation Yrotation
												End site
												{
													OFFSET 0.00000 0.00000 0.00000
												}
											}
										}
									}
									JOINT LeftHandRing1
									{
										OFFSET 12.69180 0.00000 -3.06433
										CHANNELS 3 Zrotation Xrotation Yrotation
										JOINT LeftHandRing2
										{
											OFFSET 5.62556 0.00000 0.00000
											CHANNELS 3 Zrotation Xrotation Yrotation
											JOINT LeftHandRing3
											{
												OFFSET 3.56744 0.00000 0.00000
												CHANNELS 3 Zrotation Xrotation Yrotation
												End site
												{
													OFFSET 0.00000 0.00000 0.00000
												}
											}
										}
									}
									JOINT LeftHandPinky1
									{
										OFFSET 11.11390 0.00000 -6.03719
										CHANNELS 3 Zrotation Xrotation Yrotation
										JOINT LeftHandPinky2
										{
											OFFSET 4.52789 0.00000 0.00000
											CHANNELS 3 Zrotation Xrotation Yrotation
											JOINT LeftHandPinky3
											{
												OFFSET 2.46976 0.00000 0.00000
												CHANNELS 3 Zrotation Xrotation Yrotation
												End site
												{
													OFFSET 0.00000 0.00000 0.00000
												}
											}
										}
									}
								}
							}
						}
					}
					JOINT pCube4
					{
						OFFSET 0.00000 10.91090 1.10792
						CHANNELS 3 Zrotation Xrotation Yrotation
						End site
						{
							OFFSET 0.00000 0.00000 0.00000
						}
					}
				}
			}
		}
	}
	JOINT RightUpLeg
	{
		OFFSET -9.98441 0.00000 0.00000
		CHANNELS 3 Zrotation Xrotation Yrotation
		JOINT RightLeg
		{
			OFFSET 0.00000 -42.11790 0.00000
			CHANNELS 3 Zrotation Xrotation Yrotation
			JOINT RightFoot
			{
				OFFSET 0.00000 -45.00020 -0.00001
				CHANNELS 3 Zrotation Xrotation Yrotation
				JOINT RightForeFoot
				{
					OFFSET 0.00000 -3.74820 0.00000
					CHANNELS 3 Zrotation Xrotation Yrotation
					JOINT RightToeBase
					{
						OFFSET 0.00000 0.06325 14.43120
						CHANNELS 3 Zrotation Xrotation Yrotation
						End site
						{
							OFFSET 0.00000 0.00000 0.00000
						}
					}
				}
			}
		}
	}
	JOINT LeftUpLeg
	{
		OFFSET 9.98441 0.00000 0.00000
		CHANNELS 3 Zrotation Xrotation Yrotation
		JOINT LeftLeg
		{
			OFFSET 0.00000 -42.11800 0.00000
			CHANNELS 3 Zrotation Xrotation Yrotation
			JOINT LeftFoot
			{
				OFFSET 0.00000 -45.00070 0.00000
				CHANNELS 3 Zrotation Xrotation Yrotation
				JOINT LeftForeFoot
				{
					OFFSET 0.00000 -3.74824 0.00000
					CHANNELS 3 Zrotation Xrotation Yrotation
					JOINT LeftToeBase
					{
						OFFSET 0.00000 0.06325 14.43110
						CHANNELS 3 Zrotation Xrotation Yrotation
						End site
						{
							OFFSET 0.00000 0.00000 0.00000
						}
					}
				}
			}
		}
	}
}
MOTION
Frames: 4
Frame Time: 0.050000
0.02823878635781469 -0.043769935161034626 0.03946354840373856 0.02784178997803052 0.009186886313862044 -0.010668302934029891 -4.638105714520918 -0.7769853376594221 -0.4291072558011385 -0.9903287857580553 3.4743500618884244 0.4071626586921668 -1.5003853062690031 -2.2361132626694875 -0.5174085745396128 -0.735319214128668 -0.08843935666315392 -0.8265978026657443 0.27280626410405734 12.499861263187212 -0.2254124311273323 0.331713825118553 -0.12911835790967258 -2.8173036468848807 0.6344265111135217 -15.116023487322309 -0.22403040588572834 -6.96554968332637 2.4181118213690316 -12.509164551102199 58.498298139140495 14.866873085025782 29.530651591188846 5.772350974821957 0.5799815233627186 102.32795087886171 20.65140438651007 -0.7881574690829123 -3.9724755029785372 4.551352096868026 -0.13850871659312594 -1.5580802645162897 -0.010784038367811277 -0.014346882266583141 -56.19789786196406 -0.038238061213542486 -0.006300616476884054 -56.18910014459979 -38.719943303295196 0.008432375876768806 -0.0027261687314601353 -0.047730536150954066 0.04557250506121335 -0.02680692387611418 -0.042216283473204747 -0.02406913059996302 -0.013723097250396466 -36.67769801590333 -0.040348743782592476 0.02684288668781837 -0.018373351765296458 0.04879194837103721 0.03757662646947692 -0.012506282676437873 -0.028992981741871506 0.03300878189169783 -19.727131456793277 -0.04017640544310398 0.027016734841329236 0.045387609277298076 -0.014872746140281536 0.012991619747877877 0.004942738445547321 0.019958885979833262 0.021087070759801253 24.007793317605806 -0.008045327867900342 0.019544330214679124 28.903588296555167 0.018093395160355775 -0.008120292092749575 28.828624241579014 0.02487427782306396 0.011317258678416877 7.151952041418984 1.5819395572363373 11.582795575743003 -63.44555630518152 22.618926857877504 -20.831652273999037 -44.5941814578631 5.496709589323245 -94.3102487472658 -11.35203263345844 -2.3055722739945606 0.770403789217663 -0.4900189513376937 0.029802487717065132 -8.126340929369789 -0.021536965461333442 0.005328525047783233 44.55468699350373 0.04153327272212138 -0.019555727178301324 44.58055893756408 12.495651485003709 -0.02176537372529353 -0.02601339486299872 -0.0055575294917225284 -0.026855692957777757 0.025319486802104264 0.019071627687460256 0.01112221230147332 0.04674815384447465 11.129040729618033 0.00029073677694555606 0.006789046329332211 -0.03474832695670555 0.0014736840766240318 0.001382978796014571 -0.012002994925591572 0.020604489712213802 -0.008170085585792748 4.81582343579542 0.035591837030412334 0.020650209830407242 0.004261128573545877 0.027725133198521358 0.03662755086037916 0.014700081654260523 0.04830943322672784 -0.0016839973682680365 -5.568668775770535 0.040759586126083804 -0.03610925028487856 -6.729811853819079 0.008713574220075258 -0.007962287725328754 -6.754201431690806 0.01387125411720305 0.012671185296530142 0.009297935858703112 0.010565237325547873 0.035491941615544864 8.034453349440103 3.4837268247646835 -19.194167429845805 -0.03886023628011315 10.424658245410944 -0.01713515016997953 -5.646114928815872 -15.640485499064818 3.1883720799803728 0.017763075347104213 0.0032039131283106348 0.007019069032399918 -0.022474226675828244 4.718509525168257 2.8382175553160564e-05 12.453870703497252 -8.229250480268934 6.915034403917048 0.012540071587195037 46.37720360188689 0.019790915618982892 -4.282775066646739 -14.72846111443441 -3.8524669229067006 -0.03561196184939917 0.006126837734332501 -0.04191988488667439 0.029771094124356565 -10.755818262970848 0.025218327818942756 
0.003039589396060493 0.020273570590115027 0.01604896865388924 -0.03866547102546023 0.014356072321182675 -0.03686794335601326 -4.701677913215076 -0.6698013708379915 -0.48246467382232244 -0.9890577186552526 3.469392219403971 0.4341103684293985 -1.4096629097977762 -2.2724785343511846 -0.6731876791674913 -0.699694599635042 -0.11315096146161688 -0.8064241714502803 0.28506066396096125 12.407978466346702 -0.2636182644948601 0.385552704884025 -0.0670380680176551 -2.7339576798998815 0.62160058896339 -15.043053060370108 -0.24080447207207564 -6.874094084442341 2.400155002592369 -12.584624113894366 59.9535717579121 14.192439721368343 28.372372438045513 6.003645329749583 0.745220632634183 101.19857274373551 21.302866991358467 -0.7211209175078653 -4.452036640648803 4.502686756239939 -0.14188398514865513 -1.589215653229142 0.009844571765046817 0.012957727183372757 -56.280222562304495 0.011890325615020767 -0.04442128774230939 -56.25275635482463 -38.752447219598636 -0.021025824716838733 -0.0278257081658765 0.024184937691921937 -0.02632262658415711 -0.007574483964011893 -0.025374101592355956 0.013207124117854078 -0.0387219543261776 -36.69990037387704 0.04712688590270355 -0.010103466210286136 0.0004035831150516237 0.004122276816522818 -0.0229099306206939 -0.006688517121908135 -0.016033708855502683 0.020645370764990754 -19.777554163431198 -0.007124035656682417 -0.01712726880572519 0.002339938064871466 -0.028748604640105032 0.022989126916595316 -0.008167333544159315 0.043195994332139144 0.031364426159121966 24.059168013064788 -0.012495834870218513 -0.01631169044355463 28.862991497511967 -0.009252257283018261 0.036992677946606996 28.846172942248838 0.02067835022531003 -0.031007112052865004 7.153033418466018 1.643437097080375 11.519285558104736 -63.57689639303437 22.688661884111085 -21.116479634589883 -44.03732335042956 5.4865557163136565 -93.79403240581135 -12.341529612340057 -2.886436760426786 1.379717319688986 -0.4531974078232725 0.08427443263604437 -8.169852514598428 0.021726440909282715 0.020639991930774655 44.590927024886525 0.01908828786090984 -0.038270899883651156 44.52484879278602 12.469119579933805 0.010231463238267801 -0.016493351526861655 -0.02325078683421132 -0.03553357031582986 -0.036995311774633596 0.03915951687632599 -0.017642807951305177 0.011053724465291442 11.110524336976498 -0.006660446890662316 0.01864227877606562 -0.030981582288635193 0.009310253703864615 -0.02684263853885503 0.045817452408381254 -0.004544919920037347 0.03639846603238618 4.776045592944637 0.023977111253975673 -0.009183205479443108 -0.00027148718915263116 0.02826690610833867 0.0165127003820994 -0.03981617106621199 0.0024246659410334125 0.012803631056589753 -5.559518028717181 -0.03990967116477702 -0.0013042893092092649 -6.704729596227036 0.004511045229096422 -0.020690920726121116 -6.6968837036460735 0.03078853626549694 0.0007584822159350482 0.003686307413427382 0.04929407122868619 0.026260243382003397 7.99468781404424 3.5354027050386723 -19.23679058788968 0.030782696699835486 10.432241862893747 0.01968746332966818 -5.614377102623611 -15.647010777560036 3.188149705060806 -0.002841954144211513 -0.003317390881408331 -0.04213838597487689 -0.030952391502395715 4.7353910519645455 -0.012831294058197216 12.43580404595679 -8.231602516360983 6.875054015294246 0.004698729777726069 46.36312994532944 0.009704956891024883 -4.366813501530722 -14.786892792484187 -3.808747533746788 -0.026984546375308706 -0.006566097437282324 -0.04618434344623657 -0.035626791751777694 -10.770010254553977 0.048070067411393025 
0.012079393004919949 -0.014482881179922531 -0.001058772727173219 0.010374619393200144 0.011789935290779489 0.006149987038541044 -4.627326063412263 -0.5911768421344474 -0.5215792682404657 -1.019256620933267 3.4032411105331497 0.42384435289999145 -1.4629674510922674 -2.3021834967332575 -0.8620954015240474 -0.7072384471209577 -0.10925414773763459 -0.8413632722174385 0.22071407887670036 12.489370422055059 -0.28312389149221945 0.351914836840116 0.013876394038083058 -2.799315779891082 0.6058388701580417 -14.891070833062223 -0.2616607087731297 -6.834195363131151 2.3601315261940914 -12.539300004087062 61.00830794590354 14.457973886139206 28.1497400510689 6.438911102384385 1.0955448728531914 100.2865240980622 21.801931128641645 -0.6650388263871948 -4.776120744473359 4.513060661326689 -0.16419444473793554 -1.5908229713974544 0.04481640135784922 -0.026165915657832956 -56.209183187594626 -0.019061117587790714 -0.031312437608565835 -56.268204976525574 -38.78870394274426 -0.03762977596012165 0.014613366403738181 0.0175573818680145 -0.009753043726269311 0.02585924231440936 -0.04049658891969698 -0.030595134699197547 0.018477643240573115 -36.65864447208601 -0.03143478743127414 -0.018973042858660777 -0.028732184785487634 -0.01178704061132843 0.030113254091332742 -0.012866595980271492 0.005614223957001259 -0.03562929351249977 -19.778752348072437 0.04403507746283209 0.04076423289712546 -0.030075794766639168 -0.004230947816719549 -0.01612151900826784 0.006110927503619613 -0.04872930074708867 -0.007930517976224174 24.049094209296275 0.008338509956633523 0.01644463641437124 28.898848421533643 -0.024159284865739858 0.030631353208060187 28.830936138507543 -0.03445107250603893 -0.030742037524492203 7.428983532506216 1.672300828590432 11.422887446793142 -63.007640691755036 23.20443198636179 -22.576253421367667 -39.62057040537857 4.3385751455962955 -93.30209619087917 -13.037882279481279 -3.778608556640898 2.2776130327033965 -0.4520170168237357 0.1022966921819916 -8.091514647730945 0.0016968034817883004 -0.012791529145466678 44.58008898731117 -0.030143133338199086 0.01269997716699911 44.60422224719413 12.460734441369953 0.04054516052413013 0.029987572025409942 0.012422780705643358 0.03815359623738153 0.020231422232481998 0.016747595430757732 -0.018290499729817968 0.0273339291327913 11.145958301070868 -0.00292922456795485 -0.013652440574167165 -0.031342931255768446 0.03757567155456158 -0.005727156713889514 -0.023498381108647583 -0.046243139060452264 0.032577188470679086 4.8186084937687035 0.02317082694231267 0.00839993703816698 0.03617615715775246 0.02039367831828465 -0.032290588772718086 0.023889187576443174 0.000980095563606543 0.04283604393759696 -5.5968688445444075 0.005049747749090194 0.0005123203800034944 -6.688268060496593 -0.009770842050946188 0.048080016781746976 -6.718332981475402 -0.043897562875185536 0.036875209641780086 -0.027796917655077386 0.015430021415416132 -0.03376983886996733 7.9994108158794806 3.5335302168763265 -19.201539780741758 0.008559416890855435 10.37789605919845 0.02215958502756259 -5.603857161925379 -15.680004826752162 3.1891839255927943 0.04553700454069845 0.0028100555115375264 -0.045436076337110574 0.03587013911151553 4.715605641979827 -0.01571981203654127 12.443076088364668 -8.254469875505485 6.833625330526588 -0.004749994154788004 46.35828183011829 0.012573263010325759 -4.342852811278516 -14.730374287327393 -3.8264763839256677 0.02810803453580096 0.011649754014587827 -0.04025804508444645 0.010460607599919392 -10.755279990211884 -0.00022129848357946308 
-0.02365904257836728 -0.03562752244102487 -0.021033089261379034 0.027854786697991255 -0.0402001089921206 0.0007568706823283083 -4.532827845005467 -0.5595211821499068 -0.5094726804019493 -0.9712126262444448 3.378073767105324 0.40767263546637494 -1.4595118332072239 -2.220132024918844 -0.9590509882906684 -0.6349189095760177 -0.08431231341835735 -0.8064065739658834 0.22413715029501488 12.47935354685563 -0.40285672122516414 0.36479109861896897 0.11996832172450922 -2.9117203953880892 0.636190459996214 -14.782013381369842 -0.20628069671735383 -6.785188441971505 2.383475104832428 -12.387209726814813 61.63518356372753 15.67575847062932 28.4312974882839 6.864417678305588 1.3091846951742958 99.64420450960559 22.144042749227744 -0.6612123112087419 -5.070809039690326 4.53389488299912 -0.1495462996178381 -1.6247010155211732 -0.0153998229558105 -0.043217722933654126 -56.23287817161086 0.03736524185659247 0.00737681686293849 -56.237131418167316 -38.74123566063562 0.035368840391969115 -0.02497349856558828 -0.020580121265957162 -0.00399786677341732 0.042845501828574745 -0.015045571072285128 -0.025580959264135908 0.0345370781839286 -36.70284394136934 -0.046895821856954165 -0.011811522455619883 -0.010553598781173894 0.018482299257144574 -0.026690678843343023 -0.0014801723566507674 0.01062304576617638 -0.00814760321660892 -19.761852287250576 0.005026270257466212 -0.007972948065608889 -0.018509302770994367 0.017090895685885624 0.029943234508359923 -0.0012353222478984592 0.038299559559032866 -0.039444851922267564 24.07356856409348 -0.007981730693377879 -0.006893015182651859 28.873365446569363 0.03193745228350736 -0.027754659568940028 28.88949732807543 0.02034973855720677 0.04773384564070102 7.645936062860553 1.78609009291018 11.26877796167388 -62.2040272539062 23.811645763901147 -24.4530254395823 -34.023203459779616 2.704608897305151 -93.38518611703903 -13.674323339904772 -4.883169723180783 3.2018665009309166 -0.5228732357696539 0.08866924187630507 -8.141368847026278 -0.028096306470198087 -0.022704055549152224 44.611665359799844 -0.012244941173032988 0.005208804245121392 44.54274002643753 12.483416284398043 -0.014442660332646531 0.005439079840217598 0.020067852296324653 0.04358892121693485 -0.010029309212757324 0.047619520779898755 0.0031944063423046086 0.03883385502843233 11.1169672413051 -0.01723892639432808 0.027760799415783462 0.032437920081071187 0.011716063137139401 0.022926843922301487 0.011228727000242597 0.028593734638936358 0.012739565868522134 4.7557219028261 -0.03906252373202864 0.0108622587247162 -0.0027563649609888496 -0.033040262808703084 -0.010227966849308335 0.03733069556697737 -0.01239491338959544 -0.045520174363421956 -5.5661345426694835 -0.03010703151412675 0.012397753280835174 -6.70989106391177 0.016567735136012954 0.0355176346079243 -6.747598571845317 -0.019611682822360654 -0.001199650919797133 -0.030928501638306106 -0.02592202079627869 -0.016894627851056 8.081430492075203 3.4580243224121237 -19.173435343391876 0.046755038385215476 10.398313760760068 0.036528717747781374 -5.594881805285661 -15.659349131254553 3.225830979965579 0.02087896588224773 0.02773337924627304 0.019292227878814978 0.014032556778856807 4.696865426968862 -0.0035711956283067184 12.487260115882824 -8.252149118828155 6.878342549928764 0.00405102050277548 46.393008258610095 0.03825553680622934 -4.319492093552528 -14.709309467268355 -3.829846570700383 -0.0024482971573340606 0.017853038469871747 0.010564294553903418 -0.01668908506878681 -10.793901142158516 0.015353237613681235 
